{
	"patcher" : 	{
		"fileversion" : 1,
		"appversion" : 		{
			"major" : 8,
			"minor" : 5,
			"revision" : 5,
			"architecture" : "x64",
			"modernui" : 1
		}
,
		"classnamespace" : "box",
		"rect" : [ 130.0, 90.0, 1315.0, 901.0 ],
		"bglocked" : 0,
		"openinpresentation" : 0,
		"default_fontsize" : 12.0,
		"default_fontface" : 0,
		"default_fontname" : "Arial",
		"gridonopen" : 1,
		"gridsize" : [ 15.0, 15.0 ],
		"gridsnaponopen" : 1,
		"objectsnaponopen" : 1,
		"statusbarvisible" : 2,
		"toolbarvisible" : 1,
		"lefttoolbarpinned" : 0,
		"toptoolbarpinned" : 0,
		"righttoolbarpinned" : 0,
		"bottomtoolbarpinned" : 0,
		"toolbars_unpinned_last_save" : 0,
		"tallnewobj" : 0,
		"boxanimatetime" : 200,
		"enablehscroll" : 1,
		"enablevscroll" : 1,
		"devicewidth" : 0.0,
		"description" : "",
		"digest" : "",
		"tags" : "",
		"style" : "",
		"subpatcher_template" : "",
		"assistshowspatchername" : 0,
		"boxes" : [ 			{
				"box" : 				{
					"hidden" : 1,
					"id" : "obj-4",
					"maxclass" : "newobj",
					"numinlets" : 2,
					"numoutlets" : 1,
					"outlettype" : [ "" ],
					"patching_rect" : [ 593.0, 50.0, 55.0, 22.0 ],
					"text" : "pipe 300"
				}

			}
, 			{
				"box" : 				{
					"fontname" : "Lato",
					"fontsize" : 13.0,
					"id" : "obj-59",
					"linecount" : 3,
					"maxclass" : "comment",
					"numinlets" : 1,
					"numoutlets" : 0,
					"patching_rect" : [ 768.0, 623.0, 187.0, 53.0 ],
					"text" : "Plucking position:\nAn LFO driving the position of the pluck over time"
				}

			}
, 			{
				"box" : 				{
					"calccount" : 2,
					"id" : "obj-61",
					"maxclass" : "scope~",
					"numinlets" : 2,
					"numoutlets" : 0,
					"patching_rect" : [ 768.0, 471.0, 186.0, 153.0 ],
					"range" : [ 0.0, 1.0 ]
				}

			}
, 			{
				"box" : 				{
					"format" : 6,
					"id" : "obj-57",
					"maxclass" : "flonum",
					"numinlets" : 1,
					"numoutlets" : 2,
					"outlettype" : [ "", "bang" ],
					"parameter_enable" : 0,
					"patching_rect" : [ 101.0, 485.5, 50.0, 22.0 ]
				}

			}
, 			{
				"box" : 				{
					"id" : "obj-3",
					"maxclass" : "newobj",
					"numinlets" : 1,
					"numoutlets" : 1,
					"outlettype" : [ "" ],
					"patching_rect" : [ 588.0, 131.0, 70.0, 22.0 ],
					"text" : "loadmess 3"
				}

			}
, 			{
				"box" : 				{
					"hidden" : 1,
					"id" : "obj-13",
					"maxclass" : "newobj",
					"numinlets" : 1,
					"numoutlets" : 1,
					"outlettype" : [ "" ],
					"patching_rect" : [ 420.0, 137.0, 70.0, 22.0 ],
					"text" : "loadmess 0"
				}

			}
, 			{
				"box" : 				{
					"id" : "obj-102",
					"maxclass" : "newobj",
					"numinlets" : 1,
					"numoutlets" : 1,
					"outlettype" : [ "" ],
					"patching_rect" : [ 147.0, 169.0, 80.0, 22.0 ],
					"text" : "loadmess 0.2"
				}

			}
, 			{
				"box" : 				{
					"fontface" : 0,
					"fontname" : "Arial",
					"fontsize" : 12.0,
					"id" : "obj-101",
					"maxclass" : "number~",
					"mode" : 2,
					"numinlets" : 2,
					"numoutlets" : 2,
					"outlettype" : [ "signal", "float" ],
					"patching_rect" : [ 141.0, 325.0, 56.0, 22.0 ],
					"sig" : 0.0
				}

			}
, 			{
				"box" : 				{
					"id" : "obj-100",
					"maxclass" : "newobj",
					"numinlets" : 1,
					"numoutlets" : 1,
					"outlettype" : [ "signal" ],
					"patching_rect" : [ 147.0, 223.0, 31.0, 22.0 ],
					"text" : "sig~"
				}

			}
, 			{
				"box" : 				{
					"id" : "obj-93",
					"maxclass" : "newobj",
					"numinlets" : 2,
					"numoutlets" : 1,
					"outlettype" : [ "int" ],
					"patching_rect" : [ 114.0, 255.0, 29.5, 22.0 ],
					"text" : "+ 1"
				}

			}
, 			{
				"box" : 				{
					"id" : "obj-92",
					"maxclass" : "toggle",
					"numinlets" : 1,
					"numoutlets" : 1,
					"outlettype" : [ "int" ],
					"parameter_enable" : 0,
					"patching_rect" : [ 114.0, 218.0, 24.0, 24.0 ]
				}

			}
, 			{
				"box" : 				{
					"id" : "obj-90",
					"maxclass" : "newobj",
					"numinlets" : 3,
					"numoutlets" : 1,
					"outlettype" : [ "signal" ],
					"patching_rect" : [ 119.5, 299.0, 68.0, 22.0 ],
					"text" : "selector~ 2"
				}

			}
, 			{
				"box" : 				{
					"id" : "obj-89",
					"maxclass" : "number",
					"numinlets" : 1,
					"numoutlets" : 2,
					"outlettype" : [ "", "bang" ],
					"parameter_enable" : 0,
					"patching_rect" : [ 88.0, 153.0, 50.0, 22.0 ]
				}

			}
, 			{
				"box" : 				{
					"id" : "obj-84",
					"maxclass" : "toggle",
					"numinlets" : 1,
					"numoutlets" : 1,
					"outlettype" : [ "int" ],
					"parameter_enable" : 0,
					"patching_rect" : [ 424.0, 169.0, 24.0, 24.0 ]
				}

			}
, 			{
				"box" : 				{
					"id" : "obj-82",
					"int" : 1,
					"maxclass" : "gswitch2",
					"numinlets" : 2,
					"numoutlets" : 2,
					"outlettype" : [ "", "" ],
					"parameter_enable" : 0,
					"patching_rect" : [ 472.0, 184.0, 39.0, 32.0 ]
				}

			}
, 			{
				"box" : 				{
					"format" : 6,
					"id" : "obj-78",
					"maxclass" : "flonum",
					"numinlets" : 1,
					"numoutlets" : 2,
					"outlettype" : [ "", "bang" ],
					"parameter_enable" : 0,
					"patching_rect" : [ 598.0, 237.0, 50.0, 22.0 ]
				}

			}
, 			{
				"box" : 				{
					"hidden" : 1,
					"id" : "obj-86",
					"maxclass" : "message",
					"numinlets" : 2,
					"numoutlets" : 1,
					"outlettype" : [ "" ],
					"patching_rect" : [ 58.0, 839.154175000000009, 91.0, 22.0 ],
					"text" : "sizeinsamps 62"
				}

			}
, 			{
				"box" : 				{
					"hidden" : 1,
					"id" : "obj-74",
					"maxclass" : "newobj",
					"numinlets" : 1,
					"numoutlets" : 2,
					"outlettype" : [ "float", "bang" ],
					"patching_rect" : [ 58.0, 878.154175000000009, 87.0, 22.0 ],
					"text" : "buffer~ motion"
				}

			}
, 			{
				"box" : 				{
					"hidden" : 1,
					"id" : "obj-75",
					"maxclass" : "newobj",
					"numinlets" : 1,
					"numoutlets" : 1,
					"outlettype" : [ "bang" ],
					"patching_rect" : [ 167.5, 871.154175000000009, 60.0, 22.0 ],
					"text" : "loadbang"
				}

			}
, 			{
				"box" : 				{
					"fontname" : "Arial",
					"fontsize" : 13.0,
					"hidden" : 1,
					"id" : "obj-76",
					"maxclass" : "message",
					"numinlets" : 2,
					"numoutlets" : 1,
					"outlettype" : [ "" ],
					"patching_rect" : [ 167.5, 922.154175000000009, 587.0, 23.0 ],
					"text" : "refer motion, definerange -0.4. 0.4, definethickness 1., definepoint dot, defineline lines, defineygrid 0."
				}

			}
, 			{
				"box" : 				{
					"audioframerate" : 30.0,
					"bgcolor" : [ 1.0, 1.0, 1.0, 0.0 ],
					"id" : "obj-80",
					"ignoreclick" : 1,
					"maxclass" : "plot~",
					"numinlets" : 1,
					"numoutlets" : 1,
					"outlettype" : [ "" ],
					"patching_rect" : [ 251.0, 682.654175000000009, 637.0, 191.0 ],
					"presentation" : 1,
					"presentation_rect" : [ 162.0, 253.0, 1063.0, 246.0 ],
					"subplots" : [ 						{
							"color" : [ 0.400000005960464, 0.400000005960464, 0.75, 1.0 ],
							"thickness" : 1.0,
							"point_style" : "dot",
							"line_style" : "lines",
							"number_style" : "none",
							"filter" : "none",
							"domain_start" : 0.0,
							"domain_end" : 1.0,
							"domain_style" : "linear",
							"domain_markers" : [  ],
							"domain_labels" : [  ],
							"range_start" : -0.400000005960464,
							"range_end" : 0.4,
							"range_style" : "linear",
							"range_markers" : [ 0.0 ],
							"range_labels" : [  ],
							"origin_x" : 0.0,
							"origin_y" : 0.0
						}
 ]
				}

			}
, 			{
				"box" : 				{
					"id" : "obj-73",
					"maxclass" : "newobj",
					"numinlets" : 6,
					"numoutlets" : 1,
					"outlettype" : [ "signal" ],
					"patching_rect" : [ 179.5, 223.0, 121.0, 22.0 ],
					"text" : "scale~ -1. 1. 0.05 0.5"
				}

			}
, 			{
				"box" : 				{
					"id" : "obj-72",
					"maxclass" : "newobj",
					"numinlets" : 2,
					"numoutlets" : 1,
					"outlettype" : [ "signal" ],
					"patching_rect" : [ 179.5, 194.0, 70.0, 22.0 ],
					"text" : "cycle~ 0.07"
				}

			}
, 			{
				"box" : 				{
					"format" : 6,
					"id" : "obj-64",
					"maxclass" : "flonum",
					"numinlets" : 1,
					"numoutlets" : 2,
					"outlettype" : [ "", "bang" ],
					"parameter_enable" : 0,
					"patching_rect" : [ 729.0, 169.0, 76.0, 22.0 ]
				}

			}
, 			{
				"box" : 				{
					"id" : "obj-65",
					"maxclass" : "message",
					"numinlets" : 2,
					"numoutlets" : 1,
					"outlettype" : [ "" ],
					"patching_rect" : [ 729.0, 251.0, 39.0, 22.0 ],
					"text" : "Zp $1"
				}

			}
, 			{
				"box" : 				{
					"id" : "obj-47",
					"maxclass" : "newobj",
					"numinlets" : 2,
					"numoutlets" : 1,
					"outlettype" : [ "float" ],
					"patching_rect" : [ 598.0, 206.0, 29.5, 22.0 ],
					"text" : "* 0."
				}

			}
, 			{
				"box" : 				{
					"id" : "obj-46",
					"maxclass" : "newobj",
					"numinlets" : 1,
					"numoutlets" : 2,
					"outlettype" : [ "bang", "float" ],
					"patching_rect" : [ 492.0, 226.0, 29.5, 22.0 ],
					"text" : "t b f"
				}

			}
, 			{
				"box" : 				{
					"id" : "obj-45",
					"maxclass" : "newobj",
					"numinlets" : 2,
					"numoutlets" : 1,
					"outlettype" : [ "float" ],
					"patching_rect" : [ 492.0, 149.0, 74.0, 22.0 ],
					"text" : "snapshot~ 1"
				}

			}
, 			{
				"box" : 				{
					"id" : "obj-44",
					"maxclass" : "newobj",
					"numinlets" : 2,
					"numoutlets" : 1,
					"outlettype" : [ "signal" ],
					"patching_rect" : [ 44.0, 485.5, 40.0, 22.0 ],
					"text" : "*~ 10."
				}

			}
, 			{
				"box" : 				{
					"id" : "obj-14",
					"maxclass" : "newobj",
					"numinlets" : 2,
					"numoutlets" : 2,
					"outlettype" : [ "bang", "" ],
					"patching_rect" : [ 44.0, 299.0, 34.0, 22.0 ],
					"text" : "sel 1"
				}

			}
, 			{
				"box" : 				{
					"id" : "obj-17",
					"maxclass" : "toggle",
					"numinlets" : 1,
					"numoutlets" : 1,
					"outlettype" : [ "int" ],
					"parameter_enable" : 0,
					"patching_rect" : [ 44.0, 266.0, 24.0, 24.0 ]
				}

			}
, 			{
				"box" : 				{
					"id" : "obj-18",
					"maxclass" : "message",
					"numinlets" : 2,
					"numoutlets" : 1,
					"outlettype" : [ "" ],
					"patching_rect" : [ 92.0, 363.0, 35.0, 22.0 ],
					"text" : "2. 10"
				}

			}
, 			{
				"box" : 				{
					"id" : "obj-39",
					"maxclass" : "message",
					"numinlets" : 2,
					"numoutlets" : 1,
					"outlettype" : [ "" ],
					"patching_rect" : [ 44.0, 363.0, 39.0, 22.0 ],
					"text" : "-2. 10"
				}

			}
, 			{
				"box" : 				{
					"id" : "obj-42",
					"maxclass" : "newobj",
					"numinlets" : 2,
					"numoutlets" : 2,
					"outlettype" : [ "signal", "bang" ],
					"patching_rect" : [ 44.0, 397.0, 58.0, 22.0 ],
					"text" : "line~ -10."
				}

			}
, 			{
				"box" : 				{
					"hidden" : 1,
					"id" : "obj-32",
					"maxclass" : "newobj",
					"numinlets" : 1,
					"numoutlets" : 1,
					"outlettype" : [ "bang" ],
					"patching_rect" : [ 973.833333333333485, 240.0, 58.0, 22.0 ],
					"text" : "loadbang"
				}

			}
, 			{
				"box" : 				{
					"id" : "obj-33",
					"maxclass" : "newobj",
					"numinlets" : 1,
					"numoutlets" : 1,
					"outlettype" : [ "" ],
					"patcher" : 					{
						"fileversion" : 1,
						"appversion" : 						{
							"major" : 8,
							"minor" : 5,
							"revision" : 5,
							"architecture" : "x64",
							"modernui" : 1
						}
,
						"classnamespace" : "box",
						"rect" : [ 59.0, 107.0, 640.0, 480.0 ],
						"bglocked" : 0,
						"openinpresentation" : 0,
						"default_fontsize" : 12.0,
						"default_fontface" : 0,
						"default_fontname" : "Arial",
						"gridonopen" : 1,
						"gridsize" : [ 15.0, 15.0 ],
						"gridsnaponopen" : 1,
						"objectsnaponopen" : 1,
						"statusbarvisible" : 2,
						"toolbarvisible" : 1,
						"lefttoolbarpinned" : 0,
						"toptoolbarpinned" : 0,
						"righttoolbarpinned" : 0,
						"bottomtoolbarpinned" : 0,
						"toolbars_unpinned_last_save" : 0,
						"tallnewobj" : 0,
						"boxanimatetime" : 200,
						"enablehscroll" : 1,
						"enablevscroll" : 1,
						"devicewidth" : 0.0,
						"description" : "",
						"digest" : "",
						"tags" : "",
						"style" : "",
						"subpatcher_template" : "",
						"assistshowspatchername" : 0,
						"boxes" : [ 							{
								"box" : 								{
									"id" : "obj-31",
									"maxclass" : "newobj",
									"numinlets" : 1,
									"numoutlets" : 2,
									"outlettype" : [ "", "bang" ],
									"patching_rect" : [ 97.0, 100.0, 29.5, 22.0 ],
									"text" : "t l b"
								}

							}
, 							{
								"box" : 								{
									"id" : "obj-30",
									"maxclass" : "newobj",
									"numinlets" : 2,
									"numoutlets" : 1,
									"outlettype" : [ "int" ],
									"patching_rect" : [ 50.0, 217.0, 29.5, 22.0 ],
									"text" : "i 13"
								}

							}
, 							{
								"box" : 								{
									"id" : "obj-29",
									"maxclass" : "newobj",
									"numinlets" : 2,
									"numoutlets" : 2,
									"outlettype" : [ "", "" ],
									"patching_rect" : [ 50.0, 189.0, 66.0, 22.0 ],
									"text" : "route bang"
								}

							}
, 							{
								"box" : 								{
									"id" : "obj-23",
									"maxclass" : "message",
									"numinlets" : 2,
									"numoutlets" : 1,
									"outlettype" : [ "" ],
									"patching_rect" : [ 202.0, 130.0, 29.5, 22.0 ],
									"text" : "set"
								}

							}
, 							{
								"box" : 								{
									"fontname" : "Arial",
									"fontsize" : 12.0,
									"id" : "obj-37",
									"maxclass" : "newobj",
									"numinlets" : 1,
									"numoutlets" : 1,
									"outlettype" : [ "" ],
									"patching_rect" : [ 146.0, 250.0, 59.0, 22.0 ],
									"text" : "tosymbol"
								}

							}
, 							{
								"box" : 								{
									"fontname" : "Arial",
									"fontsize" : 12.0,
									"id" : "obj-27",
									"maxclass" : "newobj",
									"numinlets" : 3,
									"numoutlets" : 1,
									"outlettype" : [ "int" ],
									"patching_rect" : [ 97.0, 250.0, 46.0, 22.0 ],
									"text" : "itoa"
								}

							}
, 							{
								"box" : 								{
									"fontname" : "Arial",
									"fontsize" : 12.0,
									"id" : "obj-26",
									"maxclass" : "newobj",
									"numinlets" : 1,
									"numoutlets" : 1,
									"outlettype" : [ "" ],
									"patching_rect" : [ 97.0, 301.0, 98.0, 22.0 ],
									"text" : "prepend append"
								}

							}
, 							{
								"box" : 								{
									"fontname" : "Arial",
									"fontsize" : 12.0,
									"id" : "obj-25",
									"maxclass" : "newobj",
									"numinlets" : 1,
									"numoutlets" : 2,
									"outlettype" : [ "int", "" ],
									"patching_rect" : [ 97.0, 217.0, 68.0, 22.0 ],
									"text" : "t 13 l"
								}

							}
, 							{
								"box" : 								{
									"fontname" : "Arial",
									"fontsize" : 12.0,
									"id" : "obj-24",
									"maxclass" : "newobj",
									"numinlets" : 2,
									"numoutlets" : 2,
									"outlettype" : [ "", "" ],
									"patching_rect" : [ 97.0, 160.0, 57.0, 22.0 ],
									"text" : "route set"
								}

							}
, 							{
								"box" : 								{
									"fontname" : "Arial",
									"fontsize" : 12.0,
									"id" : "obj-14",
									"maxclass" : "message",
									"numinlets" : 2,
									"numoutlets" : 1,
									"outlettype" : [ "" ],
									"patching_rect" : [ 155.0, 130.0, 41.0, 22.0 ],
									"text" : "dump"
								}

							}
, 							{
								"box" : 								{
									"fontname" : "Arial",
									"fontsize" : 12.0,
									"id" : "obj-15",
									"maxclass" : "newobj",
									"numinlets" : 1,
									"numoutlets" : 3,
									"outlettype" : [ "", "bang", "int" ],
									"patching_rect" : [ 97.0, 130.0, 46.0, 22.0 ],
									"text" : "text"
								}

							}
, 							{
								"box" : 								{
									"comment" : "",
									"id" : "obj-34",
									"index" : 1,
									"maxclass" : "inlet",
									"numinlets" : 0,
									"numoutlets" : 1,
									"outlettype" : [ "" ],
									"patching_rect" : [ 97.0, 40.0, 30.0, 30.0 ]
								}

							}
, 							{
								"box" : 								{
									"comment" : "",
									"id" : "obj-35",
									"index" : 1,
									"maxclass" : "outlet",
									"numinlets" : 1,
									"numoutlets" : 0,
									"patching_rect" : [ 143.5, 383.0, 30.0, 30.0 ]
								}

							}
 ],
						"lines" : [ 							{
								"patchline" : 								{
									"destination" : [ "obj-15", 0 ],
									"source" : [ "obj-14", 0 ]
								}

							}
, 							{
								"patchline" : 								{
									"destination" : [ "obj-14", 0 ],
									"source" : [ "obj-15", 1 ]
								}

							}
, 							{
								"patchline" : 								{
									"destination" : [ "obj-24", 0 ],
									"source" : [ "obj-15", 0 ]
								}

							}
, 							{
								"patchline" : 								{
									"destination" : [ "obj-35", 0 ],
									"source" : [ "obj-23", 0 ]
								}

							}
, 							{
								"patchline" : 								{
									"destination" : [ "obj-29", 0 ],
									"source" : [ "obj-24", 0 ]
								}

							}
, 							{
								"patchline" : 								{
									"destination" : [ "obj-27", 0 ],
									"source" : [ "obj-25", 0 ]
								}

							}
, 							{
								"patchline" : 								{
									"destination" : [ "obj-37", 0 ],
									"source" : [ "obj-25", 1 ]
								}

							}
, 							{
								"patchline" : 								{
									"destination" : [ "obj-35", 0 ],
									"source" : [ "obj-26", 0 ]
								}

							}
, 							{
								"patchline" : 								{
									"destination" : [ "obj-26", 0 ],
									"source" : [ "obj-27", 0 ]
								}

							}
, 							{
								"patchline" : 								{
									"destination" : [ "obj-25", 0 ],
									"source" : [ "obj-29", 1 ]
								}

							}
, 							{
								"patchline" : 								{
									"destination" : [ "obj-30", 0 ],
									"source" : [ "obj-29", 0 ]
								}

							}
, 							{
								"patchline" : 								{
									"destination" : [ "obj-27", 0 ],
									"source" : [ "obj-30", 0 ]
								}

							}
, 							{
								"patchline" : 								{
									"destination" : [ "obj-15", 0 ],
									"source" : [ "obj-31", 0 ]
								}

							}
, 							{
								"patchline" : 								{
									"destination" : [ "obj-23", 0 ],
									"source" : [ "obj-31", 1 ]
								}

							}
, 							{
								"patchline" : 								{
									"destination" : [ "obj-31", 0 ],
									"source" : [ "obj-34", 0 ]
								}

							}
, 							{
								"patchline" : 								{
									"destination" : [ "obj-26", 0 ],
									"midpoints" : [ 155.5, 298.0, 106.5, 298.0 ],
									"source" : [ "obj-37", 0 ]
								}

							}
 ]
					}
,
					"patching_rect" : [ 973.833333333333485, 293.0, 62.0, 22.0 ],
					"saved_object_attributes" : 					{
						"description" : "",
						"digest" : "",
						"globalpatchername" : "",
						"tags" : ""
					}
,
					"text" : "p readOut"
				}

			}
, 			{
				"box" : 				{
					"id" : "obj-36",
					"maxclass" : "message",
					"numinlets" : 2,
					"numoutlets" : 1,
					"outlettype" : [ "" ],
					"patching_rect" : [ 973.833333333333485, 266.0, 184.0, 22.0 ],
					"text" : "read pluckedStringVariations.mdl"
				}

			}
, 			{
				"box" : 				{
					"fontname" : "Lato",
					"fontsize" : 13.0,
					"id" : "obj-38",
					"linecount" : 29,
					"maxclass" : "comment",
					"numinlets" : 1,
					"numoutlets" : 0,
					"patching_rect" : [ 973.833333333333485, 321.0, 291.0, 474.0 ],
					"text" : "# MIMS script file\r# Script author: James Leonard\r\r# Plucking interaction parameters\r@Kp param 1.2000\r@Pscale param 0.0500\r@Zp param 0.0000\r\r# Force Input\r@in1 posInput 1.0000\r\r# Plucking mass\r@m mass 10 1.0000 0.0000\r\r# Spring damper for the plucking mass\r# Z is set to sqrt(KM) which is critical damping\r@sp springDamper @in1 @m 0.0100 0.0316\r\r# The string\r@s string 60 1.0000 0.6000 0.0003 0.0001 0.0000 0.0000\r\r# The nonlinear contact interaction\r@p nlPluck @m [@s 0.2] Kp Pscale Zp\r\r@out1 posOutput [@s 0.1]\r@out2 posOutput @m\r\r# end of MIMS script\r"
				}

			}
, 			{
				"box" : 				{
					"hidden" : 1,
					"id" : "obj-25",
					"maxclass" : "newobj",
					"numinlets" : 1,
					"numoutlets" : 1,
					"outlettype" : [ "" ],
					"patching_rect" : [ 593.0, 15.5, 70.0, 22.0 ],
					"text" : "loadmess 0"
				}

			}
, 			{
				"box" : 				{
					"fontname" : "Lato",
					"fontsize" : 13.0,
					"id" : "obj-24",
					"maxclass" : "comment",
					"numinlets" : 1,
					"numoutlets" : 0,
					"patching_rect" : [ 691.0, 44.0, 265.0, 22.0 ],
					"text" : "Switch between plucking profiles :"
				}

			}
, 			{
				"box" : 				{
					"hidden" : 1,
					"id" : "obj-21",
					"maxclass" : "newobj",
					"numinlets" : 2,
					"numoutlets" : 1,
					"outlettype" : [ "int" ],
					"patching_rect" : [ 1064.0, 71.0, 29.5, 22.0 ],
					"text" : "+ 1"
				}

			}
, 			{
				"box" : 				{
					"disabled" : [ 0, 0, 0, 0, 0 ],
					"id" : "obj-20",
					"itemtype" : 0,
					"maxclass" : "radiogroup",
					"numinlets" : 1,
					"numoutlets" : 1,
					"outlettype" : [ "" ],
					"parameter_enable" : 0,
					"patching_rect" : [ 691.0, 72.0, 18.0, 82.0 ],
					"shape" : 2,
					"size" : 5,
					"value" : 3
				}

			}
, 			{
				"box" : 				{
					"id" : "obj-37",
					"maxclass" : "newobj",
					"numinlets" : 3,
					"numoutlets" : 1,
					"outlettype" : [ "signal" ],
					"patching_rect" : [ 44.0, 703.654175000000009, 58.0, 22.0 ],
					"text" : "clip~ -1 1"
				}

			}
, 			{
				"box" : 				{
					"id" : "obj-26",
					"maxclass" : "ezdac~",
					"numinlets" : 2,
					"numoutlets" : 0,
					"patching_rect" : [ 44.0, 739.654175000000009, 45.0, 45.0 ]
				}

			}
, 			{
				"box" : 				{
					"id" : "obj-27",
					"maxclass" : "meter~",
					"numinlets" : 1,
					"numoutlets" : 1,
					"outlettype" : [ "float" ],
					"patching_rect" : [ 70.0, 541.654175000000009, 17.0, 140.0 ]
				}

			}
, 			{
				"box" : 				{
					"id" : "obj-29",
					"maxclass" : "gain~",
					"multichannelvariant" : 0,
					"numinlets" : 1,
					"numoutlets" : 2,
					"outlettype" : [ "signal", "" ],
					"parameter_enable" : 0,
					"patching_rect" : [ 44.0, 541.654175000000009, 22.0, 140.0 ]
				}

			}
, 			{
				"box" : 				{
					"hidden" : 1,
					"id" : "obj-19",
					"maxclass" : "newobj",
					"numinlets" : 1,
					"numoutlets" : 1,
					"outlettype" : [ "" ],
					"patching_rect" : [ -81.0, 374.0, 83.0, 22.0 ],
					"text" : "loadmess 105"
				}

			}
, 			{
				"box" : 				{
					"hidden" : 1,
					"id" : "obj-15",
					"maxclass" : "newobj",
					"numinlets" : 1,
					"numoutlets" : 1,
					"outlettype" : [ "" ],
					"patching_rect" : [ -86.0, 250.0, 70.0, 22.0 ],
					"text" : "loadmess 1"
				}

			}
, 			{
				"box" : 				{
					"fontname" : "Lato",
					"fontsize" : 13.0,
					"id" : "obj-12",
					"linecount" : 3,
					"maxclass" : "comment",
					"numinlets" : 1,
					"numoutlets" : 0,
					"patching_rect" : [ 572.0, 623.0, 187.0, 53.0 ],
					"text" : "Plucking intensity:\nAn LFO allowing to modulate stiffness of the plucking"
				}

			}
, 			{
				"box" : 				{
					"fontname" : "Lato",
					"fontsize" : 13.0,
					"id" : "obj-11",
					"linecount" : 2,
					"maxclass" : "comment",
					"numinlets" : 1,
					"numoutlets" : 0,
					"patching_rect" : [ 338.0, 623.0, 224.0, 38.0 ],
					"text" : "Pluck motion: This shows the plucking mass position over time"
				}

			}
, 			{
				"box" : 				{
					"fontname" : "Lato",
					"fontsize" : 13.0,
					"id" : "obj-10",
					"maxclass" : "comment",
					"numinlets" : 1,
					"numoutlets" : 0,
					"patching_rect" : [ 696.0, 442.0, 203.0, 22.0 ],
					"text" : "Time-frequency representation"
				}

			}
, 			{
				"box" : 				{
					"fontname" : "Lato",
					"fontsize" : 13.0,
					"id" : "obj-9",
					"maxclass" : "comment",
					"numinlets" : 1,
					"numoutlets" : 0,
					"patching_rect" : [ 505.0, 442.0, 184.0, 22.0 ],
					"text" : "String Spectrum"
				}

			}
, 			{
				"box" : 				{
					"fontname" : "Lato",
					"fontsize" : 13.0,
					"id" : "obj-6",
					"maxclass" : "comment",
					"numinlets" : 1,
					"numoutlets" : 0,
					"patching_rect" : [ 338.0, 442.0, 158.0, 22.0 ],
					"text" : "String Motion"
				}

			}
, 			{
				"box" : 				{
					"fontname" : "Lato",
					"fontsize" : 13.0,
					"id" : "obj-23",
					"linecount" : 5,
					"maxclass" : "comment",
					"numinlets" : 1,
					"numoutlets" : 0,
					"patching_rect" : [ 37.0, 50.0, 540.0, 84.0 ],
					"text" : "Often, when we want an instrument to sound realistic, we want to alter the non-linear dynamics of the interaction rathen than simply the intensity of the interaction.\n\nNon-linearities are what bring out the upper harmonic content of vibrating structures and are a key element to getting models to sound rich and organic!"
				}

			}
, 			{
				"box" : 				{
					"fontface" : 1,
					"fontname" : "Lato",
					"fontsize" : 18.0,
					"id" : "obj-5",
					"maxclass" : "comment",
					"numinlets" : 1,
					"numoutlets" : 0,
					"patching_rect" : [ 37.0, 15.5, 308.0, 28.0 ],
					"text" : "4 - Plucking Interaction Profiles"
				}

			}
, 			{
				"box" : 				{
					"fontface" : 1,
					"fontname" : "Lato",
					"fontsize" : 18.0,
					"id" : "obj-69",
					"maxclass" : "comment",
					"numinlets" : 1,
					"numoutlets" : 0,
					"patching_rect" : [ 717.0, 77.0, 257.0, 28.0 ],
					"text" : "Extra hard pluck variations !"
				}

			}
, 			{
				"box" : 				{
					"hidden" : 1,
					"id" : "obj-67",
					"maxclass" : "newobj",
					"numinlets" : 1,
					"numoutlets" : 1,
					"outlettype" : [ "" ],
					"patcher" : 					{
						"fileversion" : 1,
						"appversion" : 						{
							"major" : 8,
							"minor" : 5,
							"revision" : 5,
							"architecture" : "x64",
							"modernui" : 1
						}
,
						"classnamespace" : "box",
						"rect" : [ 444.0, 283.0, 640.0, 480.0 ],
						"bglocked" : 0,
						"openinpresentation" : 0,
						"default_fontsize" : 12.0,
						"default_fontface" : 0,
						"default_fontname" : "Arial",
						"gridonopen" : 1,
						"gridsize" : [ 15.0, 15.0 ],
						"gridsnaponopen" : 1,
						"objectsnaponopen" : 1,
						"statusbarvisible" : 2,
						"toolbarvisible" : 1,
						"lefttoolbarpinned" : 0,
						"toptoolbarpinned" : 0,
						"righttoolbarpinned" : 0,
						"bottomtoolbarpinned" : 0,
						"toolbars_unpinned_last_save" : 0,
						"tallnewobj" : 0,
						"boxanimatetime" : 200,
						"enablehscroll" : 1,
						"enablevscroll" : 1,
						"devicewidth" : 0.0,
						"description" : "",
						"digest" : "",
						"tags" : "",
						"style" : "",
						"subpatcher_template" : "",
						"assistshowspatchername" : 0,
						"visible" : 1,
						"boxes" : [ 							{
								"box" : 								{
									"comment" : "",
									"id" : "obj-9",
									"index" : 1,
									"maxclass" : "outlet",
									"numinlets" : 1,
									"numoutlets" : 0,
									"patching_rect" : [ 131.0, 327.0, 30.0, 30.0 ]
								}

							}
, 							{
								"box" : 								{
									"id" : "obj-8",
									"maxclass" : "message",
									"numinlets" : 2,
									"numoutlets" : 1,
									"outlettype" : [ "" ],
									"patching_rect" : [ 175.0, 260.0, 134.0, 22.0 ],
									"text" : "set \"Experimental Stuff\""
								}

							}
, 							{
								"box" : 								{
									"id" : "obj-7",
									"maxclass" : "message",
									"numinlets" : 2,
									"numoutlets" : 1,
									"outlettype" : [ "" ],
									"patching_rect" : [ 164.0, 228.0, 184.0, 22.0 ],
									"text" : "set \"Extra hard pluck variations !\""
								}

							}
, 							{
								"box" : 								{
									"id" : "obj-6",
									"maxclass" : "message",
									"numinlets" : 2,
									"numoutlets" : 1,
									"outlettype" : [ "" ],
									"patching_rect" : [ 153.0, 192.0, 253.0, 22.0 ],
									"text" : "set \"Variation in stiffness, moving along string\""
								}

							}
, 							{
								"box" : 								{
									"id" : "obj-5",
									"maxclass" : "message",
									"numinlets" : 2,
									"numoutlets" : 1,
									"outlettype" : [ "" ],
									"patching_rect" : [ 146.0, 156.0, 190.0, 22.0 ],
									"text" : "set \"Variation in plucking stiffness\""
								}

							}
, 							{
								"box" : 								{
									"id" : "obj-4",
									"maxclass" : "message",
									"numinlets" : 2,
									"numoutlets" : 1,
									"outlettype" : [ "" ],
									"patching_rect" : [ 131.0, 119.0, 202.0, 22.0 ],
									"text" : "set \"Constant Plucking, no variation\""
								}

							}
, 							{
								"box" : 								{
									"id" : "obj-2",
									"maxclass" : "newobj",
									"numinlets" : 6,
									"numoutlets" : 6,
									"outlettype" : [ "bang", "bang", "bang", "bang", "bang", "" ],
									"patching_rect" : [ 131.0, 64.0, 74.0, 22.0 ],
									"text" : "sel 1 2 3 4 5"
								}

							}
, 							{
								"box" : 								{
									"comment" : "",
									"id" : "obj-1",
									"index" : 1,
									"maxclass" : "inlet",
									"numinlets" : 0,
									"numoutlets" : 1,
									"outlettype" : [ "int" ],
									"patching_rect" : [ 131.0, 9.0, 30.0, 30.0 ]
								}

							}
 ],
						"lines" : [ 							{
								"patchline" : 								{
									"destination" : [ "obj-2", 0 ],
									"source" : [ "obj-1", 0 ]
								}

							}
, 							{
								"patchline" : 								{
									"destination" : [ "obj-4", 0 ],
									"source" : [ "obj-2", 0 ]
								}

							}
, 							{
								"patchline" : 								{
									"destination" : [ "obj-5", 0 ],
									"source" : [ "obj-2", 1 ]
								}

							}
, 							{
								"patchline" : 								{
									"destination" : [ "obj-6", 0 ],
									"source" : [ "obj-2", 2 ]
								}

							}
, 							{
								"patchline" : 								{
									"destination" : [ "obj-7", 0 ],
									"source" : [ "obj-2", 3 ]
								}

							}
, 							{
								"patchline" : 								{
									"destination" : [ "obj-8", 0 ],
									"source" : [ "obj-2", 4 ]
								}

							}
, 							{
								"patchline" : 								{
									"destination" : [ "obj-9", 0 ],
									"source" : [ "obj-4", 0 ]
								}

							}
, 							{
								"patchline" : 								{
									"destination" : [ "obj-9", 0 ],
									"source" : [ "obj-5", 0 ]
								}

							}
, 							{
								"patchline" : 								{
									"destination" : [ "obj-9", 0 ],
									"source" : [ "obj-6", 0 ]
								}

							}
, 							{
								"patchline" : 								{
									"destination" : [ "obj-9", 0 ],
									"source" : [ "obj-7", 0 ]
								}

							}
, 							{
								"patchline" : 								{
									"destination" : [ "obj-9", 0 ],
									"source" : [ "obj-8", 0 ]
								}

							}
 ]
					}
,
					"patching_rect" : [ 1068.833333333333485, 137.0, 77.0, 22.0 ],
					"saved_object_attributes" : 					{
						"description" : "",
						"digest" : "",
						"globalpatchername" : "",
						"tags" : ""
					}
,
					"text" : "p description"
				}

			}
, 			{
				"box" : 				{
					"format" : 6,
					"id" : "obj-60",
					"maxclass" : "flonum",
					"numinlets" : 1,
					"numoutlets" : 2,
					"outlettype" : [ "", "bang" ],
					"parameter_enable" : 0,
					"patching_rect" : [ 814.0, 169.0, 76.0, 22.0 ]
				}

			}
, 			{
				"box" : 				{
					"format" : 6,
					"id" : "obj-58",
					"maxclass" : "flonum",
					"numinlets" : 1,
					"numoutlets" : 2,
					"outlettype" : [ "", "bang" ],
					"parameter_enable" : 0,
					"patching_rect" : [ 660.0, 169.0, 67.0, 22.0 ]
				}

			}
, 			{
				"box" : 				{
					"format" : 6,
					"id" : "obj-56",
					"maxclass" : "flonum",
					"numinlets" : 1,
					"numoutlets" : 2,
					"outlettype" : [ "", "bang" ],
					"parameter_enable" : 0,
					"patching_rect" : [ 598.0, 169.0, 50.0, 22.0 ]
				}

			}
, 			{
				"box" : 				{
					"hidden" : 1,
					"id" : "obj-54",
					"maxclass" : "preset",
					"numinlets" : 1,
					"numoutlets" : 5,
					"outlettype" : [ "preset", "int", "preset", "int", "" ],
					"patching_rect" : [ 1064.0, 102.5, 68.0, 19.0 ],
					"preset_data" : [ 						{
							"number" : 1,
							"data" : [ 5, "obj-28", "toggle", "int", 1, 5, "obj-56", "flonum", "float", 3.0, 5, "obj-58", "flonum", "float", 0.050000000745058, 5, "obj-60", "flonum", "float", 0.100000001490116, 6, "obj-29", "gain~", "list", 124, 10.0, 5, "<invalid>", "radiogroup", "int", 0, 5, "obj-17", "toggle", "int", 0, 5, "obj-64", "flonum", "float", 0.009999999776483, 5, "obj-78", "flonum", "float", 3.0, 5, "obj-82", "gswitch2", "int", 0, 5, "obj-84", "toggle", "int", 0, 5, "obj-89", "number", "int", 600, 5, "obj-92", "toggle", "int", 0, 6, "obj-101", "number~", "list", 0.0, 0.0, 5, "obj-57", "flonum", "float", 3.0 ]
						}
, 						{
							"number" : 2,
							"data" : [ 5, "obj-28", "toggle", "int", 1, 5, "obj-56", "flonum", "float", 3.0, 5, "obj-58", "flonum", "float", 0.050000000745058, 5, "obj-60", "flonum", "float", 0.100000001490116, 6, "obj-29", "gain~", "list", 124, 10.0, 5, "<invalid>", "radiogroup", "int", 0, 5, "obj-17", "toggle", "int", 1, 5, "obj-64", "flonum", "float", 0.009999999776483, 5, "obj-78", "flonum", "float", 1.53905975818634, 5, "obj-82", "gswitch2", "int", 1, 5, "obj-84", "toggle", "int", 1, 5, "obj-89", "number", "int", 600, 5, "obj-92", "toggle", "int", 0, 6, "obj-101", "number~", "list", 0.0, 0.0, 5, "obj-57", "flonum", "float", 6.0 ]
						}
, 						{
							"number" : 3,
							"data" : [ 5, "obj-28", "toggle", "int", 1, 5, "obj-56", "flonum", "float", 3.0, 5, "obj-58", "flonum", "float", 0.050000000745058, 5, "obj-60", "flonum", "float", 0.100000001490116, 6, "obj-29", "gain~", "list", 124, 10.0, 5, "<invalid>", "radiogroup", "int", 0, 5, "obj-17", "toggle", "int", 1, 5, "obj-64", "flonum", "float", 0.009999999776483, 5, "obj-78", "flonum", "float", 3.673417091369629, 5, "obj-82", "gswitch2", "int", 1, 5, "obj-84", "toggle", "int", 1, 5, "obj-89", "number", "int", 600, 5, "obj-92", "toggle", "int", 1, 6, "obj-101", "number~", "list", 0.0, 0.0 ]
						}
, 						{
							"number" : 4,
							"data" : [ 5, "obj-28", "toggle", "int", 1, 5, "obj-56", "flonum", "float", 10.0, 5, "obj-58", "flonum", "float", 0.050000000745058, 5, "obj-60", "flonum", "float", 0.100000001490116, 6, "obj-29", "gain~", "list", 124, 10.0, 5, "<invalid>", "radiogroup", "int", 0, 5, "obj-17", "toggle", "int", 1, 5, "obj-64", "flonum", "float", 0.009999999776483, 5, "obj-78", "flonum", "float", 14.158220291137695, 5, "obj-82", "gswitch2", "int", 1, 5, "obj-84", "toggle", "int", 1, 5, "obj-89", "number", "int", 500, 5, "obj-92", "toggle", "int", 1, 6, "obj-101", "number~", "list", 0.0, 0.0, 5, "obj-57", "flonum", "float", 2.0 ]
						}
, 						{
							"number" : 5,
							"data" : [ 5, "obj-28", "toggle", "int", 1, 5, "obj-56", "flonum", "float", 10.0, 5, "obj-58", "flonum", "float", 0.050000000745058, 5, "obj-60", "flonum", "float", 0.009999999776483, 6, "obj-29", "gain~", "list", 124, 10.0, 5, "<invalid>", "radiogroup", "int", 0, 5, "obj-17", "toggle", "int", 0, 5, "obj-64", "flonum", "float", 0.009999999776483, 5, "obj-78", "flonum", "float", 5.000009059906006, 5, "obj-82", "gswitch2", "int", 1, 5, "obj-84", "toggle", "int", 1, 5, "obj-89", "number", "int", 100, 5, "obj-92", "toggle", "int", 1, 6, "obj-101", "number~", "list", 0.0, 0.0, 5, "obj-57", "flonum", "float", 2.0 ]
						}
, 						{
							"number" : 9,
							"data" : [ 6, "<invalid>", "gain~", "list", 110, 10.0, 6, "<invalid>", "gain~", "list", 73, 10.0, 5, "obj-28", "toggle", "int", 1, 5, "obj-56", "flonum", "float", 0.5, 5, "obj-58", "flonum", "float", 0.0, 5, "obj-60", "flonum", "float", 0.5, 5, "<invalid>", "flonum", "float", 0.0 ]
						}
 ]
				}

			}
, 			{
				"box" : 				{
					"id" : "obj-53",
					"maxclass" : "message",
					"numinlets" : 2,
					"numoutlets" : 1,
					"outlettype" : [ "" ],
					"patching_rect" : [ 814.0, 251.0, 39.0, 22.0 ],
					"text" : "Ks $1"
				}

			}
, 			{
				"box" : 				{
					"id" : "obj-51",
					"maxclass" : "message",
					"numinlets" : 2,
					"numoutlets" : 1,
					"outlettype" : [ "" ],
					"patching_rect" : [ 660.0, 251.0, 61.0, 22.0 ],
					"text" : "Pscale $1"
				}

			}
, 			{
				"box" : 				{
					"id" : "obj-50",
					"maxclass" : "message",
					"numinlets" : 2,
					"numoutlets" : 1,
					"outlettype" : [ "" ],
					"patching_rect" : [ 598.0, 266.0, 40.0, 22.0 ],
					"text" : "Kp $1"
				}

			}
, 			{
				"box" : 				{
					"bufsize" : 256,
					"calccount" : 32,
					"drawstyle" : 1,
					"id" : "obj-43",
					"maxclass" : "scope~",
					"numinlets" : 2,
					"numoutlets" : 0,
					"patching_rect" : [ 338.0, 471.0, 224.0, 153.0 ],
					"range" : [ -2.5, 2.5 ],
					"triglevel" : 0.01
				}

			}
, 			{
				"box" : 				{
					"calccount" : 2,
					"id" : "obj-41",
					"maxclass" : "scope~",
					"numinlets" : 2,
					"numoutlets" : 0,
					"patching_rect" : [ 572.0, 471.0, 186.0, 153.0 ],
					"range" : [ 0.0, 3.0 ]
				}

			}
, 			{
				"box" : 				{
					"id" : "obj-40",
					"maxclass" : "newobj",
					"numinlets" : 2,
					"numoutlets" : 1,
					"outlettype" : [ "signal" ],
					"patching_rect" : [ 338.5, 200.0, 33.0, 22.0 ],
					"text" : "+~ 1"
				}

			}
, 			{
				"box" : 				{
					"id" : "obj-35",
					"maxclass" : "newobj",
					"numinlets" : 2,
					"numoutlets" : 1,
					"outlettype" : [ "signal" ],
					"patching_rect" : [ 338.5, 169.0, 40.0, 22.0 ],
					"text" : "*~ 0.5"
				}

			}
, 			{
				"box" : 				{
					"id" : "obj-34",
					"maxclass" : "newobj",
					"numinlets" : 2,
					"numoutlets" : 1,
					"outlettype" : [ "signal" ],
					"patching_rect" : [ 338.5, 143.0, 63.0, 22.0 ],
					"text" : "cycle~ 0.1"
				}

			}
, 			{
				"box" : 				{
					"id" : "obj-28",
					"maxclass" : "toggle",
					"numinlets" : 1,
					"numoutlets" : 1,
					"outlettype" : [ "int" ],
					"parameter_enable" : 0,
					"patching_rect" : [ 44.0, 153.0, 24.0, 24.0 ]
				}

			}
, 			{
				"box" : 				{
					"id" : "obj-22",
					"maxclass" : "newobj",
					"numinlets" : 2,
					"numoutlets" : 1,
					"outlettype" : [ "bang" ],
					"patching_rect" : [ 44.0, 189.0, 63.0, 22.0 ],
					"text" : "metro 100"
				}

			}
, 			{
				"box" : 				{
					"id" : "obj-16",
					"maxclass" : "spectroscope~",
					"monochrome" : 0,
					"numinlets" : 2,
					"numoutlets" : 1,
					"outlettype" : [ "" ],
					"patching_rect" : [ 696.0, 305.0, 203.0, 135.0 ],
					"sono" : 1
				}

			}
, 			{
				"box" : 				{
					"id" : "obj-8",
					"maxclass" : "spectroscope~",
					"numinlets" : 2,
					"numoutlets" : 1,
					"outlettype" : [ "" ],
					"patching_rect" : [ 505.0, 305.0, 184.0, 135.0 ]
				}

			}
, 			{
				"box" : 				{
					"id" : "obj-7",
					"maxclass" : "button",
					"numinlets" : 1,
					"numoutlets" : 1,
					"outlettype" : [ "bang" ],
					"parameter_enable" : 0,
					"patching_rect" : [ 44.0, 226.0, 24.0, 24.0 ]
				}

			}
, 			{
				"box" : 				{
					"calccount" : 2,
					"id" : "obj-2",
					"maxclass" : "scope~",
					"numinlets" : 2,
					"numoutlets" : 0,
					"patching_rect" : [ 338.0, 305.0, 158.0, 135.0 ]
				}

			}
, 			{
				"box" : 				{
					"id" : "obj-1",
					"maxclass" : "newobj",
					"numinlets" : 2,
					"numoutlets" : 3,
					"outlettype" : [ "signal", "signal", "signal" ],
					"patching_rect" : [ 44.0, 447.0, 207.0, 22.0 ],
					"text" : "gen~ pluckedStringVariations.gendsp"
				}

			}
 ],
		"lines" : [ 			{
				"patchline" : 				{
					"destination" : [ "obj-43", 0 ],
					"midpoints" : [ 147.5, 471.0, 324.0, 471.0, 324.0, 465.0, 347.5, 465.0 ],
					"source" : [ "obj-1", 1 ]
				}

			}
, 			{
				"patchline" : 				{
					"destination" : [ "obj-44", 0 ],
					"source" : [ "obj-1", 0 ]
				}

			}
, 			{
				"patchline" : 				{
					"destination" : [ "obj-90", 1 ],
					"source" : [ "obj-100", 0 ]
				}

			}
, 			{
				"patchline" : 				{
					"destination" : [ "obj-100", 0 ],
					"source" : [ "obj-102", 0 ]
				}

			}
, 			{
				"patchline" : 				{
					"destination" : [ "obj-84", 0 ],
					"hidden" : 1,
					"order" : 0,
					"source" : [ "obj-13", 0 ]
				}

			}
, 			{
				"patchline" : 				{
					"destination" : [ "obj-92", 0 ],
					"hidden" : 1,
					"order" : 1,
					"source" : [ "obj-13", 0 ]
				}

			}
, 			{
				"patchline" : 				{
					"destination" : [ "obj-18", 0 ],
					"source" : [ "obj-14", 1 ]
				}

			}
, 			{
				"patchline" : 				{
					"destination" : [ "obj-39", 0 ],
					"source" : [ "obj-14", 0 ]
				}

			}
, 			{
				"patchline" : 				{
					"destination" : [ "obj-28", 0 ],
					"hidden" : 1,
					"source" : [ "obj-15", 0 ]
				}

			}
, 			{
				"patchline" : 				{
					"destination" : [ "obj-14", 0 ],
					"source" : [ "obj-17", 0 ]
				}

			}
, 			{
				"patchline" : 				{
					"destination" : [ "obj-42", 0 ],
					"source" : [ "obj-18", 0 ]
				}

			}
, 			{
				"patchline" : 				{
					"destination" : [ "obj-29", 0 ],
					"hidden" : 1,
					"source" : [ "obj-19", 0 ]
				}

			}
, 			{
				"patchline" : 				{
					"destination" : [ "obj-21", 0 ],
					"hidden" : 1,
					"midpoints" : [ 700.5, 156.0, 1048.0, 156.0, 1048.0, 62.0, 1073.5, 62.0 ],
					"source" : [ "obj-20", 0 ]
				}

			}
, 			{
				"patchline" : 				{
					"destination" : [ "obj-54", 0 ],
					"hidden" : 1,
					"source" : [ "obj-21", 0 ]
				}

			}
, 			{
				"patchline" : 				{
					"destination" : [ "obj-7", 0 ],
					"source" : [ "obj-22", 0 ]
				}

			}
, 			{
				"patchline" : 				{
					"destination" : [ "obj-4", 0 ],
					"hidden" : 1,
					"source" : [ "obj-25", 0 ]
				}

			}
, 			{
				"patchline" : 				{
					"destination" : [ "obj-22", 0 ],
					"source" : [ "obj-28", 0 ]
				}

			}
, 			{
				"patchline" : 				{
					"destination" : [ "obj-27", 0 ],
					"midpoints" : [ 53.5, 678.654175000000009, 67.0, 678.654175000000009, 67.0, 531.654175000000009, 79.5, 531.654175000000009 ],
					"order" : 0,
					"source" : [ "obj-29", 0 ]
				}

			}
, 			{
				"patchline" : 				{
					"destination" : [ "obj-37", 0 ],
					"order" : 1,
					"source" : [ "obj-29", 0 ]
				}

			}
, 			{
				"patchline" : 				{
					"destination" : [ "obj-47", 0 ],
					"midpoints" : [ 597.5, 165.0, 585.0, 165.0, 585.0, 201.0, 607.5, 201.0 ],
					"source" : [ "obj-3", 0 ]
				}

			}
, 			{
				"patchline" : 				{
					"destination" : [ "obj-36", 0 ],
					"hidden" : 1,
					"source" : [ "obj-32", 0 ]
				}

			}
, 			{
				"patchline" : 				{
					"destination" : [ "obj-38", 0 ],
					"source" : [ "obj-33", 0 ]
				}

			}
, 			{
				"patchline" : 				{
					"destination" : [ "obj-35", 0 ],
					"source" : [ "obj-34", 0 ]
				}

			}
, 			{
				"patchline" : 				{
					"destination" : [ "obj-40", 0 ],
					"source" : [ "obj-35", 0 ]
				}

			}
, 			{
				"patchline" : 				{
					"destination" : [ "obj-33", 0 ],
					"source" : [ "obj-36", 0 ]
				}

			}
, 			{
				"patchline" : 				{
					"destination" : [ "obj-26", 1 ],
					"order" : 0,
					"source" : [ "obj-37", 0 ]
				}

			}
, 			{
				"patchline" : 				{
					"destination" : [ "obj-26", 0 ],
					"order" : 1,
					"source" : [ "obj-37", 0 ]
				}

			}
, 			{
				"patchline" : 				{
					"destination" : [ "obj-42", 0 ],
					"source" : [ "obj-39", 0 ]
				}

			}
, 			{
				"patchline" : 				{
					"destination" : [ "obj-20", 0 ],
					"hidden" : 1,
					"source" : [ "obj-4", 0 ]
				}

			}
, 			{
				"patchline" : 				{
					"destination" : [ "obj-41", 0 ],
					"midpoints" : [ 348.0, 291.0, 501.0, 291.0, 501.0, 465.0, 581.5, 465.0 ],
					"order" : 0,
					"source" : [ "obj-40", 0 ]
				}

			}
, 			{
				"patchline" : 				{
					"destination" : [ "obj-45", 0 ],
					"midpoints" : [ 348.0, 225.0, 413.0, 225.0, 413.0, 144.0, 501.5, 144.0 ],
					"order" : 1,
					"source" : [ "obj-40", 0 ]
				}

			}
, 			{
				"patchline" : 				{
					"destination" : [ "obj-1", 0 ],
					"source" : [ "obj-42", 0 ]
				}

			}
, 			{
				"patchline" : 				{
					"destination" : [ "obj-16", 0 ],
					"midpoints" : [ 53.5, 519.0, 324.0, 519.0, 324.0, 291.0, 705.5, 291.0 ],
					"order" : 0,
					"source" : [ "obj-44", 0 ]
				}

			}
, 			{
				"patchline" : 				{
					"destination" : [ "obj-2", 0 ],
					"midpoints" : [ 53.5, 519.0, 324.0, 519.0, 324.0, 300.0, 347.5, 300.0 ],
					"order" : 2,
					"source" : [ "obj-44", 0 ]
				}

			}
, 			{
				"patchline" : 				{
					"destination" : [ "obj-29", 0 ],
					"order" : 3,
					"source" : [ "obj-44", 0 ]
				}

			}
, 			{
				"patchline" : 				{
					"destination" : [ "obj-8", 0 ],
					"midpoints" : [ 53.5, 519.0, 324.0, 519.0, 324.0, 291.0, 514.5, 291.0 ],
					"order" : 1,
					"source" : [ "obj-44", 0 ]
				}

			}
, 			{
				"patchline" : 				{
					"destination" : [ "obj-82", 1 ],
					"source" : [ "obj-45", 0 ]
				}

			}
, 			{
				"patchline" : 				{
					"destination" : [ "obj-47", 1 ],
					"source" : [ "obj-46", 1 ]
				}

			}
, 			{
				"patchline" : 				{
					"destination" : [ "obj-47", 0 ],
					"source" : [ "obj-46", 0 ]
				}

			}
, 			{
				"patchline" : 				{
					"destination" : [ "obj-78", 0 ],
					"source" : [ "obj-47", 0 ]
				}

			}
, 			{
				"patchline" : 				{
					"destination" : [ "obj-1", 0 ],
					"midpoints" : [ 607.5, 290.0, 180.0, 290.0, 180.0, 482.0, 53.5, 482.0 ],
					"source" : [ "obj-50", 0 ]
				}

			}
, 			{
				"patchline" : 				{
					"destination" : [ "obj-1", 0 ],
					"midpoints" : [ 669.5, 290.0, 180.0, 290.0, 180.0, 482.0, 53.5, 482.0 ],
					"source" : [ "obj-51", 0 ]
				}

			}
, 			{
				"patchline" : 				{
					"destination" : [ "obj-1", 0 ],
					"midpoints" : [ 823.5, 291.0, 207.0, 291.0, 207.0, 432.0, 53.5, 432.0 ],
					"source" : [ "obj-53", 0 ]
				}

			}
, 			{
				"patchline" : 				{
					"destination" : [ "obj-20", 0 ],
					"hidden" : 1,
					"source" : [ "obj-54", 2 ]
				}

			}
, 			{
				"patchline" : 				{
					"destination" : [ "obj-67", 0 ],
					"hidden" : 1,
					"source" : [ "obj-54", 1 ]
				}

			}
, 			{
				"patchline" : 				{
					"destination" : [ "obj-47", 0 ],
					"source" : [ "obj-56", 0 ]
				}

			}
, 			{
				"patchline" : 				{
					"destination" : [ "obj-44", 1 ],
					"source" : [ "obj-57", 0 ]
				}

			}
, 			{
				"patchline" : 				{
					"destination" : [ "obj-51", 0 ],
					"source" : [ "obj-58", 0 ]
				}

			}
, 			{
				"patchline" : 				{
					"destination" : [ "obj-53", 0 ],
					"source" : [ "obj-60", 0 ]
				}

			}
, 			{
				"patchline" : 				{
					"destination" : [ "obj-65", 0 ],
					"source" : [ "obj-64", 0 ]
				}

			}
, 			{
				"patchline" : 				{
					"destination" : [ "obj-1", 0 ],
					"midpoints" : [ 738.5, 288.0, 201.0, 288.0, 201.0, 432.0, 53.5, 432.0 ],
					"source" : [ "obj-65", 0 ]
				}

			}
, 			{
				"patchline" : 				{
					"destination" : [ "obj-69", 0 ],
					"hidden" : 1,
					"midpoints" : [ 1078.333333333333485, 162.0, 1054.0, 162.0, 1054.0, 135.0, 1036.0, 135.0, 1036.0, 72.0, 726.5, 72.0 ],
					"source" : [ "obj-67", 0 ]
				}

			}
, 			{
				"patchline" : 				{
					"destination" : [ "obj-17", 0 ],
					"source" : [ "obj-7", 0 ]
				}

			}
, 			{
				"patchline" : 				{
					"destination" : [ "obj-73", 0 ],
					"source" : [ "obj-72", 0 ]
				}

			}
, 			{
				"patchline" : 				{
					"destination" : [ "obj-90", 2 ],
					"source" : [ "obj-73", 0 ]
				}

			}
, 			{
				"patchline" : 				{
					"destination" : [ "obj-76", 0 ],
					"hidden" : 1,
					"midpoints" : [ 177.0, 908.154175000000009, 177.0, 908.154175000000009 ],
					"order" : 0,
					"source" : [ "obj-75", 0 ]
				}

			}
, 			{
				"patchline" : 				{
					"destination" : [ "obj-86", 0 ],
					"hidden" : 1,
					"midpoints" : [ 177.0, 905.154175000000009, 50.0, 905.154175000000009, 50.0, 836.154175000000009, 67.5, 836.154175000000009 ],
					"order" : 1,
					"source" : [ "obj-75", 0 ]
				}

			}
, 			{
				"patchline" : 				{
					"destination" : [ "obj-80", 0 ],
					"hidden" : 1,
					"midpoints" : [ 177.0, 947.154175000000009, 153.0, 947.154175000000009, 153.0, 905.154175000000009, 237.0, 905.154175000000009, 237.0, 677.154175000000009, 260.5, 677.154175000000009 ],
					"source" : [ "obj-76", 0 ]
				}

			}
, 			{
				"patchline" : 				{
					"destination" : [ "obj-50", 0 ],
					"source" : [ "obj-78", 0 ]
				}

			}
, 			{
				"patchline" : 				{
					"destination" : [ "obj-46", 0 ],
					"source" : [ "obj-82", 1 ]
				}

			}
, 			{
				"patchline" : 				{
					"destination" : [ "obj-82", 0 ],
					"source" : [ "obj-84", 0 ]
				}

			}
, 			{
				"patchline" : 				{
					"destination" : [ "obj-74", 0 ],
					"hidden" : 1,
					"source" : [ "obj-86", 0 ]
				}

			}
, 			{
				"patchline" : 				{
					"destination" : [ "obj-22", 1 ],
					"source" : [ "obj-89", 0 ]
				}

			}
, 			{
				"patchline" : 				{
					"destination" : [ "obj-1", 1 ],
					"midpoints" : [ 129.0, 357.0, 241.5, 357.0 ],
					"order" : 1,
					"source" : [ "obj-90", 0 ]
				}

			}
, 			{
				"patchline" : 				{
					"destination" : [ "obj-101", 0 ],
					"order" : 2,
					"source" : [ "obj-90", 0 ]
				}

			}
, 			{
				"patchline" : 				{
					"destination" : [ "obj-61", 0 ],
					"midpoints" : [ 129.0, 324.0, 138.0, 324.0, 138.0, 321.0, 324.0, 321.0, 324.0, 291.0, 693.0, 291.0, 693.0, 465.0, 777.5, 465.0 ],
					"order" : 0,
					"source" : [ "obj-90", 0 ]
				}

			}
, 			{
				"patchline" : 				{
					"destination" : [ "obj-93", 0 ],
					"source" : [ "obj-92", 0 ]
				}

			}
, 			{
				"patchline" : 				{
					"destination" : [ "obj-90", 0 ],
					"source" : [ "obj-93", 0 ]
				}

			}
 ],
		"dependency_cache" : [ 			{
				"name" : "migen-integrated.genexpr",
				"bootpath" : "~/Documents/Max 8/Packages/mi-gen/code",
				"patcherrelativepath" : "../../../code",
				"type" : "GenX",
				"implicit" : 1
			}
, 			{
				"name" : "migen-lib.genexpr",
				"bootpath" : "~/Documents/Max 8/Packages/mi-gen/code",
				"patcherrelativepath" : "../../../code",
				"type" : "GenX",
				"implicit" : 1
			}
, 			{
				"name" : "migen-proxies.genexpr",
				"bootpath" : "~/Documents/Max 8/Packages/mi-gen/code",
				"patcherrelativepath" : "../../../code",
				"type" : "GenX",
				"implicit" : 1
			}
, 			{
				"name" : "pluckedStringVariations.gendsp",
				"bootpath" : "~/Documents/Max 8/Packages/mi-gen/examples/Modelling_Tutorial_Series/4_PluckingVariations",
				"patcherrelativepath" : ".",
				"type" : "gDSP",
				"implicit" : 1
			}
 ],
		"autosave" : 0
	}

}
